<?xml version="1.0" standalone="no"?>
<!DOCTYPE svg PUBLIC "-//W3C//DTD SVG 20010904//EN"
 "http://www.w3.org/TR/2001/REC-SVG-20010904/DTD/svg10.dtd">
<svg version="1.0" xmlns="http://www.w3.org/2000/svg"
 width="512.000000pt" height="512.000000pt" viewBox="0 0 512.000000 512.000000"
 preserveAspectRatio="xMidYMid meet">

<g transform="translate(0.000000,512.000000) scale(0.100000,-0.100000)"
fill="#000000" stroke="none">
<path d="M1358 4960 c-152 -18 -272 -78 -412 -206 -56 -51 -214 -204 -352
-341 -241 -238 -253 -252 -293 -333 -82 -171 -76 -21 -76 -1785 0 -1493 1
-1573 18 -1635 52 -183 187 -350 347 -428 168 -83 48 -76 1495 -80 789 -1
1322 1 1375 7 273 31 475 188 574 445 l31 81 5 465 5 465 384 585 c211 322
392 603 402 625 134 304 -129 649 -454 596 -122 -20 -223 -78 -296 -171 l-40
-51 -3 618 -3 618 -30 80 c-96 253 -302 414 -570 446 -96 11 -2010 10 -2107
-1z m2183 -166 c161 -47 291 -169 352 -329 22 -60 22 -61 25 -780 l3 -720
-338 -515 c-185 -283 -349 -540 -365 -570 -15 -30 -34 -86 -43 -125 -17 -82
-50 -582 -41 -629 9 -48 55 -87 110 -93 42 -5 60 3 293 122 269 138 289 150
346 204 l38 36 -3 -340 c-3 -324 -4 -343 -26 -400 -60 -161 -189 -281 -351
-329 -49 -14 -197 -16 -1392 -16 -1300 0 -1339 1 -1400 20 -176 54 -300 181
-358 365 -13 44 -16 225 -19 1535 -2 817 0 1509 3 1538 l6 52 401 0 c278 0
413 4 440 12 50 15 122 78 151 132 21 40 22 50 25 444 l3 402 1043 0 c925 0
1048 -2 1097 -16z m-2311 -765 c-6 -11 -26 -29 -43 -39 -29 -18 -52 -20 -265
-20 l-232 0 15 37 c33 79 83 138 290 344 118 117 220 216 227 220 17 11 24
-510 8 -542z m3480 -906 c28 -56 37 -141 21 -199 -10 -38 -103 -194 -116 -194
-12 0 -255 163 -255 172 0 25 107 162 153 195 44 33 132 72 163 73 6 0 21 -21
34 -47z m-392 -388 c154 -100 211 -142 207 -153 -4 -11 -592 -915 -660 -1014
-10 -16 -35 -2 -241 133 -126 82 -232 153 -236 157 -3 4 86 149 200 322 114
173 267 407 340 518 129 198 134 203 155 189 12 -7 118 -76 235 -152z"/>
<path d="M1902 4430 c-66 -40 -72 -63 -72 -276 0 -182 1 -193 23 -224 12 -18
35 -43 50 -54 28 -21 33 -21 800 -21 754 0 773 0 805 20 67 40 77 70 80 256 4
198 -3 233 -58 283 l-40 36 -778 0 c-758 0 -778 -1 -810 -20z m1528 -275 l0
-145 -725 0 -725 0 0 145 0 145 725 0 725 0 0 -145z"/>
<path d="M887 3300 c-44 -13 -95 -57 -120 -103 -22 -41 -22 -48 -22 -412 l0
-370 28 -47 c29 -51 63 -78 116 -96 23 -8 146 -12 383 -12 380 0 392 2 452 58
64 61 66 69 66 470 0 338 -1 365 -19 400 -25 48 -66 87 -113 106 -32 14 -92
16 -390 15 -194 0 -366 -5 -381 -9z"/>
<path d="M2150 3030 c-25 -25 -26 -71 -1 -101 l19 -24 710 0 c684 0 711 1 731
19 27 25 28 79 1 106 -20 20 -33 20 -730 20 -697 0 -710 0 -730 -20z"/>
<path d="M2173 2660 c-45 -18 -57 -81 -23 -118 l21 -22 533 0 533 0 21 23 c27
29 28 67 3 98 l-19 24 -524 2 c-289 1 -533 -2 -545 -7z"/>
<path d="M896 1850 c-66 -20 -127 -82 -146 -151 -14 -49 -13 -692 1 -740 16
-52 64 -108 113 -130 37 -17 73 -19 405 -19 l363 0 49 26 c27 15 60 44 76 68
l28 41 3 370 c3 419 2 428 -69 489 -22 19 -60 39 -84 45 -52 13 -695 14 -739
1z m726 -167 c17 -15 18 -39 18 -350 0 -320 -1 -334 -20 -353 -19 -19 -33 -20
-348 -20 -280 0 -331 2 -350 16 -22 15 -22 15 -22 350 0 212 4 342 10 355 10
18 25 19 352 19 304 0 343 -2 360 -17z"/>
<path d="M1377 1475 c-16 -8 -45 -28 -65 -43 -21 -16 -49 -37 -64 -46 -27 -18
-27 -18 -59 18 -38 44 -83 49 -117 13 -42 -45 -20 -105 76 -209 41 -44 67 -37
190 52 155 112 176 143 130 194 -30 33 -57 39 -91 21z"/>
<path d="M2152 1577 c-29 -31 -28 -72 3 -102 l24 -25 323 0 c238 1 327 4 339
13 26 20 40 55 33 82 -13 54 -21 55 -374 55 l-327 0 -21 -23z"/>
<path d="M2150 1188 c-25 -27 -26 -69 -1 -99 l19 -24 257 0 257 0 19 24 c25
30 24 72 -1 99 -20 22 -26 22 -275 22 -249 0 -255 0 -275 -22z"/>
</g>
</svg>
